<?xml version="1.0" encoding="UTF-8"?>
<svg width="23px" height="23px" viewBox="0 0 23 23" version="1.1" xmlns="http://www.w3.org/2000/svg" xmlns:xlink="http://www.w3.org/1999/xlink">
    <!-- Generator: Sketch 49.3 (51167) - http://www.bohemiancoding.com/sketch -->
    <title>pw help button</title>
    <desc>Created with Sketch.</desc>
    <defs></defs>
    <g id="Member-Mobile" stroke="none" stroke-width="1" fill="none" fill-rule="evenodd">
        <g id="Member-Login" transform="translate(-335.000000, -328.000000)" fill="#AAAAAA">
            <g id="Password" transform="translate(11.000000, 328.000000)">
                <path d="M335.655769,0 C341.921121,0 347,5.074 347,11.3333333 C347,17.5926667 341.921121,22.6666667 335.655769,22.6666667 C329.390417,22.6666667 324.311538,17.5926667 324.311538,11.3333333 C324.311538,5.074 329.390417,0 335.655769,0 Z M335.655769,1.33333333 C330.127792,1.33333333 325.646154,5.81066667 325.646154,11.3333333 C325.646154,16.856 330.127792,21.3333333 335.655769,21.3333333 C341.183746,21.3333333 345.665385,16.856 345.665385,11.3333333 C345.665385,5.81066667 341.183746,1.33333333 335.655769,1.33333333 Z M335.773215,13.8646667 L335.773215,13.8653333 L334.239075,13.8653333 L334.239075,13.3653333 C334.239075,12.792 334.343175,12.316 334.552042,11.9353333 C334.76091,11.5546667 335.125927,11.1613333 335.647094,10.7553333 C336.26769,10.266 336.668075,9.88533333 336.847581,9.61466667 C337.027087,9.344 337.117173,9.02066667 337.117173,8.646 C337.117173,8.208 336.9717,7.872 336.679419,7.638 C336.387138,7.404 335.967402,7.28666667 335.42021,7.28666667 C334.925067,7.28666667 334.466627,7.35666667 334.044221,7.49733333 C333.621815,7.638 333.210087,7.80733333 332.808367,8.00533333 L332.151737,6.63066667 C333.210087,6.042 334.34451,5.748 335.553671,5.748 C336.575987,5.748 337.386098,5.998 337.986008,6.498 C338.585917,6.998 338.885538,7.688 338.885538,8.568 C338.885538,8.958 338.82815,9.306 338.713373,9.61066667 C338.598596,9.91533333 338.425763,10.206 338.19354,10.482 C337.961317,10.758 337.5616,11.1173333 336.993054,11.56 C336.507921,11.94 336.18361,12.2553333 336.019452,12.5053333 C335.855294,12.7553333 335.773215,13.0913333 335.773215,13.5133333 L335.773215,13.8646667 Z M334.217054,17.2433333 C334.415244,17.454 334.699517,17.56 335.069206,17.56 C335.438894,17.56 335.724502,17.452 335.925362,17.236 C336.126221,17.02 336.226317,16.7266667 336.226317,16.3573333 C336.226317,15.9826667 336.127556,15.692 335.929365,15.486 C335.731175,15.28 335.444233,15.1773333 335.069206,15.1773333 C334.303137,15.1773333 333.919435,15.5706667 333.919435,16.3573333 C333.919435,16.7366667 334.018863,17.0326667 334.217054,17.2433333 L334.217054,17.2433333 Z" id="pw-help-button"></path>
            </g>
        </g>
    </g>
</svg>